<svg xmlns="http://www.w3.org/2000/svg" version="1.1" xmlns:xlink="http://www.w3.org/1999/xlink" xmlns:svgjs="http://svgjs.dev/svgjs" width="2000" height="425" viewBox="0 0 2000 425"><g transform="matrix(1,0,0,1,0.561198868981478,0.6209375000000819)"><svg viewBox="0 0 320 68" data-background-color="#ffffff" preserveAspectRatio="xMidYMid meet" height="425" width="2000" xmlns="http://www.w3.org/2000/svg" xmlns:xlink="http://www.w3.org/1999/xlink"><g id="tight-bounds" transform="matrix(1,0,0,1,-0.08979181903703193,-0.09935000000001537)"><svg viewBox="0 0 320.17958363807406 68.1987" height="68.1987" width="320.17958363807406"><g><svg viewBox="0 0 320.17958363807406 68.1987" height="68.1987" width="320.17958363807406"><g><svg viewBox="0 0 320.17958363807406 68.1987" height="68.1987" width="320.17958363807406"><g id="textblocktransform"><svg viewBox="0 0 320.17958363807406 68.1987" height="68.1987" width="320.17958363807406" id="textblock"><g><svg viewBox="0 0 320.17958363807406 68.1987" height="68.1987" width="320.17958363807406"><g><svg><g></g><g></g></svg></g><g><svg><g><svg></svg></g><g></g></svg></g><g id="text-0"><svg viewBox="0 0 320.17958363807406 68.1987" height="68.1987" width="320.17958363807406"><g transform="matrix(1,0,0,1,0,0)"><svg width="231.61669999999998" viewBox="2.1 -33.55 143.14000000000001 42.150000000000006" height="68.1987" data-palette-color="#ff5349"><path d="M9.95 0.4L9.95 0.4Q8.15 0.4 5.93 0 3.7-0.4 2.1-1L2.1-1 2.1-4.7 4.3-4.2Q4.95-3.75 6.38-3.28 7.8-2.8 9.7-2.8L9.7-2.8Q12.55-2.8 13.9-3.98 15.25-5.15 15.25-6.85L15.25-6.85Q15.25-8.35 14.35-9.15 13.45-9.95 11.95-10.45 10.45-10.95 8.7-11.5L8.7-11.5Q6.9-12.1 5.4-12.9 3.9-13.7 3-14.98 2.1-16.25 2.1-18.2L2.1-18.2Q2.1-20.45 3.28-22.15 4.45-23.85 6.48-24.8 8.5-25.75 11.05-25.75L11.05-25.75Q12.5-25.75 14.28-25.4 16.05-25.05 18.15-24.35L18.15-24.35 18.15-21.35 15.5-21.7Q14.45-22 13.38-22.2 12.3-22.4 11.3-22.4L11.3-22.4Q9.85-22.4 8.72-21.95 7.6-21.5 6.95-20.7 6.3-19.9 6.3-18.85L6.3-18.85Q6.3-17.45 7.38-16.63 8.45-15.8 10-15.3 11.55-14.8 12.95-14.35L12.95-14.35Q14.6-13.85 16.07-13.05 17.55-12.25 18.5-10.95 19.45-9.65 19.45-7.55L19.45-7.55Q19.45-5.3 18.28-3.5 17.1-1.7 14.98-0.65 12.85 0.4 9.95 0.4ZM15.45-18.65L14.95-22.4 18.15-21.75 18.15-17.85 16.5-17.85Q16-17.85 15.75-18.07 15.5-18.3 15.45-18.65L15.45-18.65ZM4.8-6.8L5.3-3.05 2.1-3.7 2.1-7.6 3.75-7.6Q4.3-7.6 4.53-7.38 4.75-7.15 4.8-6.8L4.8-6.8ZM30.75 8.6L26.3 8.6 26.3-25.35 28.95-25.35Q29.95-25.35 30.15-24.4L30.15-24.4 30.55-21.4Q32.15-23.4 34.25-24.6 36.35-25.8 39.05-25.8L39.05-25.8Q42.15-25.8 44.3-24.2 46.45-22.6 47.55-19.7 48.65-16.8 48.65-12.85L48.65-12.85Q48.65-9.2 47.35-6.2 46.05-3.2 43.6-1.43 41.15 0.35 37.7 0.35L37.7 0.35Q35.35 0.35 33.7-0.43 32.05-1.2 30.75-2.65L30.75-2.65 30.75 8.6ZM36.7-3.1L36.7-3.1Q39.1-3.1 40.72-4.23 42.35-5.35 43.2-7.55 44.05-9.75 44.05-12.85L44.05-12.85Q44.05-17.45 42.45-19.83 40.85-22.2 37.6-22.2L37.6-22.2Q35.4-22.2 33.77-21.2 32.15-20.2 30.75-18.35L30.75-18.35 30.75-6.1Q32-4.45 33.45-3.78 34.9-3.1 36.7-3.1ZM22.7-25.35L27.8-25.35 27.25-21.45 23.5-22.25Q23.1-22.35 22.9-22.6 22.7-22.85 22.7-23.3L22.7-23.3 22.7-25.35ZM27.8 8.6L22.7 8.6 22.7 6.55Q22.7 6.1 22.9 5.83 23.1 5.55 23.5 5.5L23.5 5.5 27.25 4.7 27.8 8.6ZM34.35 8.6L29.25 8.6 29.8 4.7 33.55 5.5Q33.95 5.55 34.15 5.83 34.35 6.1 34.35 6.55L34.35 6.55 34.35 8.6ZM59.8 0L55.34 0 55.34-25.35 57.89-25.35Q58.64-25.35 58.95-25.08 59.24-24.8 59.3-24.1L59.3-24.1 59.59-20.15Q60.89-22.8 62.8-24.3 64.69-25.8 67.3-25.8L67.3-25.8Q68.34-25.8 69.19-25.55 70.05-25.3 70.75-24.9L70.75-24.9 70.19-21.55Q70.14-21.25 69.92-21.1 69.69-20.95 69.39-20.95L69.39-20.95Q69.05-20.95 68.05-21.18 67.05-21.4 66.3-21.4L66.3-21.4Q63.99-21.4 62.42-20.05 60.84-18.7 59.8-16.15L59.8-16.15 59.8 0ZM63.39 0L58.3 0 58.84-3.9 62.59-3.1Q62.99-3.05 63.2-2.78 63.39-2.5 63.39-2.05L63.39-2.05 63.39 0ZM56.84 0L51.74 0 51.74-2.05Q51.74-2.5 51.95-2.78 52.14-3.05 52.55-3.1L52.55-3.1 56.3-3.9 56.84 0ZM51.74-25.35L56.84-25.35 56.3-21.45 52.55-22.25Q52.14-22.35 51.95-22.6 51.74-22.85 51.74-23.3L51.74-23.3 51.74-25.35ZM85.24-25.75L85.24-25.75Q89.04-25.75 91.72-24.13 94.39-22.5 95.84-19.55 97.29-16.6 97.29-12.7L97.29-12.7Q97.29-8.8 95.84-5.85 94.39-2.9 91.72-1.28 89.04 0.35 85.24 0.35L85.24 0.35Q81.54 0.35 78.82-1.28 76.09-2.9 74.62-5.85 73.14-8.8 73.14-12.7L73.14-12.7Q73.14-16.6 74.62-19.55 76.09-22.5 78.82-24.13 81.54-25.75 85.24-25.75ZM85.24-3.15L85.24-3.15Q88.99-3.15 90.84-5.65 92.69-8.15 92.69-12.65L92.69-12.65Q92.69-15.7 91.87-17.82 91.04-19.95 89.39-21.1 87.74-22.25 85.24-22.25L85.24-22.25Q82.69-22.25 81.02-21.08 79.34-19.9 78.54-17.75 77.74-15.6 77.74-12.65L77.74-12.65Q77.74-8.3 79.59-5.73 81.44-3.15 85.24-3.15ZM111.39 0.4L111.39 0.4Q108.64 0.4 106.74-0.83 104.84-2.05 103.86-4.2 102.89-6.35 102.89-9.2L102.89-9.2 102.89-25.35 107.34-25.35 107.34-9.2Q107.34-6.3 108.66-4.73 109.99-3.15 112.69-3.15L112.69-3.15Q114.64-3.15 116.36-4.08 118.09-5 119.54-6.65L119.54-6.65 119.54-25.35 123.99-25.35 123.99 0 121.34 0Q120.34 0 120.14-0.95L120.14-0.95 119.79-3.65Q118.14-1.85 116.09-0.73 114.04 0.4 111.39 0.4ZM127.59 0L122.49 0 123.04-3.9 126.79-3.1Q127.19-3.05 127.39-2.78 127.59-2.5 127.59-2.05L127.59-2.05 127.59 0ZM99.29-25.35L104.39-25.35 103.84-21.45 100.09-22.25Q99.69-22.35 99.49-22.6 99.29-22.85 99.29-23.3L99.29-23.3 99.29-25.35ZM115.94-25.35L121.04-25.35 120.49-21.45 116.74-22.25Q116.34-22.35 116.14-22.6 115.94-22.85 115.94-23.3L115.94-23.3 115.94-25.35ZM139.14 0.4L139.14 0.4Q136.14 0.4 134.51-1.28 132.89-2.95 132.89-6.1L132.89-6.1 132.89-21.6 129.84-21.6Q129.44-21.6 129.16-21.85 128.89-22.1 128.89-22.6L128.89-22.6 128.89-24.35 133.04-24.9 134.09-32.7Q134.19-33.55 135.09-33.55L135.09-33.55 137.34-33.55 137.34-24.85 144.59-24.85 144.59-21.6 137.34-21.6 137.34-6.4Q137.34-4.8 138.11-4.03 138.89-3.25 140.14-3.25L140.14-3.25Q140.69-3.25 141.34-3.55 141.99-3.85 142.54-4.15 143.09-4.45 143.34-4.45L143.34-4.45Q143.69-4.45 143.94-4.05L143.94-4.05 145.24-1.9Q144.09-0.85 142.46-0.23 140.84 0.4 139.14 0.4Z" opacity="1" transform="matrix(1,0,0,1,0,0)" fill="#ff5349" class="wordmark-text-0" data-fill-palette-color="primary"></path></svg></g><g><svg xmlns="http://www.w3.org/2000/svg" xmlns:xlink="http://www.w3.org/1999/xlink" version="1.1" x="247.718" y="0" viewBox="6.499524443817201 9.999953139410442 84.99953261652811 79.99904686058957" enable-background="new 0 0 100 100" xml:space="preserve" height="68.1987" width="72.46158363807405" class="icon-cg-0" data-fill-palette-color="accent" id="cg-0"><g fill="#ff5349" data-fill-palette-color="accent"><path d="M37.777 34.184c-2.277-0.902-4.615-1.396-6.905-1.518-2.753-0.143-5.448 0.254-7.9 1.133L9.166 38.905c-2.317 0.857-3.314 3.34-2.226 5.546l6.48 13.142c1.171 2.313 2.852 4.444 4.948 6.222 2.378 2.013 5.3 3.583 8.627 4.462 8.428 2.224 17.071-0.964 21.225-7.516-6.015-3.748-18.528-11.301-24.482-13.112 2.269-0.048 17.776 5.613 26.221 9.428C52.856 48.14 47.598 38.074 37.777 34.184z" fill="#ff5349" data-fill-palette-color="accent"></path><path d="M85.772 10.026l-18.928 1.789c-3.346 0.351-6.701 1.397-9.818 3.102-2.592 1.421-5.027 3.303-7.16 5.624-3.287 3.575-5.43 7.742-6.47 12.018 5.675 3.526 9.552 9.023 10.867 15.007 7.745-8.555 17.432-18.279 19.537-19.238-5.227 4.823-13.889 17.784-19.172 26.034-0.134 1.175-0.374 2.347-0.722 3.507 8.433 4.542 19.634 3.226 27.8-3.761 3.367-2.88 5.87-6.338 7.492-10.006 1.427-3.238 2.172-6.652 2.221-9.994l0.08-18.887C91.513 12.052 88.949 9.726 85.772 10.026z" fill="#ff5349" data-fill-palette-color="accent"></path><path d="M52.497 61.645c-0.408 0.55-0.879 1.239-0.879 1.239-0.349 0.551-0.735 1.077-1.136 1.59 1.081 5.239 1.66 10.729 1.66 16.388 0 3.102-0.185 6.149-0.519 9.137h9.762c-0.936-9.987-3.442-19.318-7.169-27.555C53.632 62.2 53.059 61.933 52.497 61.645z" fill="#ff5349" data-fill-palette-color="accent"></path></g></svg></g></svg></g></svg></g></svg></g></svg></g></svg></g><defs></defs></svg><rect width="320.17958363807406" height="68.1987" fill="none" stroke="none" visibility="hidden"></rect></g></svg></g></svg>